<svg width="26" height="26" viewBox="0 0 26 26" fill="none" xmlns="http://www.w3.org/2000/svg">
    <g clip-path="url(#f8vynt0c0a)">
        <path d="M18.344 5.85A1.71 1.71 0 0 1 20.04 7.46V21.45l-1.74-1.477-.956-.87-1.042-.909.435 1.434H7.611c-.91 0-1.65-.693-1.65-1.61V7.462c0-.87.74-1.61 1.654-1.61H18.34l.004-.002zm-3.977 3.694h-.019l-.131.13c1.347.39 2 1 2 1-.87-.435-1.652-.652-2.434-.74-.566-.088-1.131-.042-1.61 0h-.13c-.305 0-.955.13-1.826.478-.303.132-.477.218-.477.218s.65-.651 2.086-.999l-.088-.088s-1.086-.041-2.26.826c0 0-1.173 2.043-1.173 4.563 0 0 .65 1.13 2.433 1.174 0 0 .26-.347.523-.652-1-.304-1.39-.912-1.39-.912s.086.043.217.13h.039c.02 0 .028.01.039.02v.003c.01.01.02.02.039.02.214.088.429.175.604.26.376.16.768.277 1.17.348.605.088 1.298.13 2.087 0 .39-.088.78-.173 1.17-.348.253-.13.565-.26.908-.479 0 0-.39.609-1.433.913.214.303.516.65.516.65 1.784-.039 2.477-1.17 2.516-1.122 0-2.515-1.18-4.563-1.18-4.563-1.062-.789-2.057-.819-2.232-.819l.036-.013v.002zm.11 2.868c.457 0 .825.39.825.868 0 .481-.37.871-.825.871-.455 0-.826-.39-.826-.867.002-.48.373-.87.826-.87v-.002zm-2.953 0c.455 0 .823.39.823.868 0 .481-.37.871-.826.871-.455 0-.825-.39-.825-.867 0-.48.37-.87.825-.87l.003-.002z" fill="#A0A8BA"/>
    </g>
    <defs>
        <clipPath id="f8vynt0c0a">
            <path fill="#fff" transform="translate(5.2 5.85)" d="M0 0h15.6v15.6H0z"/>
        </clipPath>
    </defs>
</svg>
