<svg width="26" height="26" viewBox="0 0 26 26" fill="none" xmlns="http://www.w3.org/2000/svg">
    <g clip-path="url(#bqwby2ivfa)" fill="#A0A8BA">
        <path d="M21.227 8.614a2.194 2.194 0 0 0-4.082-1.123v.002c-.019.031-.036.063-.053.094l-.009.017a1.801 1.801 0 0 0-.04.082l-.012.026a1.785 1.785 0 0 0-.072.18l-.012.037a2.688 2.688 0 0 0-.033.11l-.018.069-.01.042-.013.068-.008.044-.01.072-.005.043-.007.08-.003.036a2.298 2.298 0 0 0 0 .219v.022l.007.097.002.016a1.714 1.714 0 0 0 .03.197c0 .008.003.015.005.022l.02.088v.007l.026.09.007.023c.01.03.019.058.03.086.001.007.004.013.006.019a2.625 2.625 0 0 0 .074.174l.011.023.037.072a2.205 2.205 0 0 0 1.02.959l.013.006c.06.027.123.052.186.074l.033.01.051.017.047.013.066.017.059.014.04.008.062.011.032.005c.031.005.062.009.094.012l.026.003.076.005.03.002c.034 0 .066.003.1.003.04 0 .078 0 .117-.004l.037-.003.08-.006.043-.005.072-.01.043-.008a1.61 1.61 0 0 0 .069-.014l.042-.01c.023-.005.046-.01.068-.017a2.136 2.136 0 0 0 .11-.033l.037-.012a2.97 2.97 0 0 0 .072-.027l.032-.013.076-.032.026-.012.082-.04.017-.01c.032-.016.063-.033.094-.052h.002a2.187 2.187 0 0 0 1.078-1.885z"/>
        <path d="m16.955 11.167-3.618 2.815a.548.548 0 0 1-.674 0l-4.936-3.84a.549.549 0 1 1 .674-.865L13 12.854l3.23-2.512a3.286 3.286 0 0 1-.049-3.375h-8.94a1.922 1.922 0 0 0-1.92 1.92v8.226a1.922 1.922 0 0 0 1.92 1.92H18.76a1.921 1.921 0 0 0 1.919-1.92v-5.649a3.285 3.285 0 0 1-3.723-.297z"/>
    </g>
    <defs>
        <clipPath id="bqwby2ivfa">
            <path fill="#fff" transform="translate(4.225 4.225)" d="M0 0h17.55v17.55H0z"/>
        </clipPath>
    </defs>
</svg>
