<svg width="26" height="26" viewBox="0 0 26 26" fill="none" xmlns="http://www.w3.org/2000/svg">
    <path d="M13.074 4.55a8.516 8.516 0 0 0-8.524 8.516 8.526 8.526 0 0 0 5.71 8.045c.447.113.378-.205.378-.422v-1.476c-2.584.303-2.689-1.407-2.862-1.693-.35-.598-1.179-.75-.931-1.036.588-.303 1.188.076 1.883 1.103.503.744 1.483.619 1.98.495.11-.448.341-.848.661-1.158-2.677-.48-3.793-2.114-3.793-4.056 0-.943.31-1.81.92-2.508-.389-1.152.036-2.139.093-2.285 1.106-.1 2.257.792 2.346.862a8.272 8.272 0 0 1 2.15-.259 8.28 8.28 0 0 1 2.161.265c.216-.164 1.282-.93 2.31-.836.056.147.47 1.11.105 2.247.617.7.931 1.575.931 2.52 0 1.946-1.123 3.582-3.808 4.054.447.441.725 1.055.725 1.733v2.142c.015.171 0 .34.286.34A8.518 8.518 0 0 0 13.074 4.55z" fill="#A0A8BA"/>
</svg>
