<svg width="26" height="26" viewBox="0 0 26 26" fill="none" xmlns="http://www.w3.org/2000/svg">
    <path fill-rule="evenodd" clip-rule="evenodd" d="M21.41 12.747a288.947 288.947 0 0 0 0 .882c.002.981.004 1.957-.053 2.938-.064 1.32-.363 2.49-1.33 3.458-.966.965-2.138 1.267-3.459 1.33-.997.057-1.989.055-2.987.054h-.832c-.997.002-1.989.003-2.988-.053-1.32-.065-2.49-.364-3.458-1.331-.965-.966-1.267-2.137-1.33-3.458-.057-.998-.056-1.991-.054-2.988v-.831c-.002-.997-.003-1.989.053-2.989.064-1.32.364-2.49 1.331-3.457.966-.966 2.137-1.267 3.458-1.33.998-.057 1.99-.056 2.987-.055h.832c.997 0 1.989-.002 2.989.054 1.32.064 2.49.363 3.457 1.33.966.966 1.267 2.138 1.33 3.458.057.998.056 1.99.055 2.988zm-12.479.416a4.225 4.225 0 0 0 4.232 4.232 4.225 4.225 0 0 0 4.23-4.232 4.225 4.225 0 0 0-4.23-4.23 4.225 4.225 0 0 0-4.232 4.23zM16.58 8.76a.987.987 0 1 0 1.976 0 .987.987 0 1 0-1.976 0zm-6.166 4.404a2.756 2.756 0 0 1 2.75-2.75 2.756 2.756 0 0 1 2.75 2.75 2.756 2.756 0 0 1-2.75 2.75 2.756 2.756 0 0 1-2.75-2.75z" fill="#A0A8BA"/>
</svg>
