<svg width="153" height="45" viewBox="0 0 153 45" fill="none" xmlns="http://www.w3.org/2000/svg">
    <path fill-rule="evenodd" clip-rule="evenodd" d="M10.746 18.403v-5.546H0v19.758h10.746V27.07h-5.2v-8.666h5.2zm12.826 0v-5.546H12.826v19.758h10.746V27.07h-5.2v-8.666h5.2z" fill="#3A75FF"/>
    <path d="M41.578 15.429v1.71h-5.467v14.04h-1.8v-14.04h-5.468v-1.71h12.735zm5.354 4.882c1.605 0 2.94.529 4.005 1.587 1.072 1.057 1.608 2.373 1.608 3.948 0 1.583-.536 2.903-1.608 3.96-1.065 1.058-2.4 1.586-4.005 1.586s-2.94-.528-4.005-1.586c-1.065-1.057-1.598-2.377-1.598-3.96 0-1.575.533-2.891 1.598-3.948 1.072-1.058 2.407-1.587 4.005-1.587zm2.778 2.7c-.742-.75-1.668-1.125-2.778-1.125s-2.037.375-2.78 1.125c-.742.75-1.113 1.695-1.113 2.835 0 1.148.371 2.096 1.114 2.846.742.75 1.669 1.125 2.779 1.125 1.11 0 2.036-.375 2.778-1.125.743-.75 1.114-1.698 1.114-2.846 0-1.14-.371-2.085-1.114-2.835zm7.652-8.032v9.866h1.541l4.106-4.32h2.104l-4.837 5.018 4.916 5.636h-2.126l-4.174-4.804h-1.53v4.804h-1.688v-16.2h1.688zm14.26 5.332c1.447 0 2.64.514 3.577 1.541.945 1.028 1.421 2.348 1.429 3.96 0 .233-.011.443-.034.63h-8.539c.113 1.11.518 1.97 1.215 2.577.698.6 1.549.9 2.554.9 1.275 0 2.4-.447 3.375-1.339l.9 1.148c-1.163 1.11-2.621 1.664-4.376 1.664-1.583 0-2.876-.51-3.882-1.53-1.004-1.027-1.507-2.362-1.507-4.004 0-1.62.499-2.948 1.496-3.983.998-1.043 2.261-1.564 3.791-1.564zm-.034 1.497c-.96 0-1.751.3-2.374.9-.623.6-1.001 1.39-1.136 2.373h6.84c-.105-.997-.462-1.792-1.069-2.385-.6-.592-1.354-.889-2.261-.889zM85.01 20.31c1.32 0 2.389.39 3.206 1.17.825.78 1.238 1.811 1.238 3.094v6.604h-1.676v-6.053c0-1.012-.27-1.8-.81-2.362-.533-.57-1.287-.855-2.262-.855-.922 0-1.698.3-2.328.9-.623.592-.934 1.38-.934 2.362v6.008h-1.688V20.525h1.665v1.519c.405-.6.927-1.039 1.564-1.317a5.019 5.019 0 0 1 2.025-.416zm16.641.72-.99 2.284a9.464 9.464 0 0 0-1.677-.619 7.178 7.178 0 0 0-1.8-.27c-.547 0-.963.09-1.248.27-.285.173-.428.413-.428.72 0 .285.147.491.439.619.293.12.739.225 1.339.315l.967.146c2.453.375 3.679 1.463 3.679 3.263 0 1.132-.442 2.032-1.327 2.7-.886.667-2.112 1.001-3.68 1.001-2.024 0-3.64-.428-4.848-1.283l1.159-2.227c1.072.713 2.31 1.069 3.712 1.069 1.343 0 2.014-.341 2.014-1.024 0-.262-.142-.473-.428-.63-.285-.157-.746-.281-1.383-.371l-.889-.124c-2.513-.345-3.769-1.448-3.769-3.308 0-1.117.405-1.99 1.215-2.62.818-.63 1.947-.946 3.386-.946 1.628 0 3.147.345 4.557 1.035zm7.681-1.046c.907 0 1.736.18 2.486.54.75.353 1.376.859 1.879 1.519l-2.115 1.766c-.683-.727-1.459-1.091-2.329-1.091-.772 0-1.421.277-1.946.832-.525.555-.788 1.279-.788 2.172 0 .892.259 1.616.777 2.17a2.57 2.57 0 0 0 1.946.833c.907 0 1.699-.367 2.374-1.102l2.092 1.789c-1.065 1.364-2.524 2.047-4.376 2.047-1.725 0-3.124-.536-4.196-1.609-1.073-1.08-1.609-2.456-1.609-4.128 0-1.665.536-3.038 1.609-4.118 1.072-1.08 2.471-1.62 4.196-1.62zm17.006.293v10.9h-2.869v-1.203c-.802.99-1.89 1.485-3.262 1.485-1.5 0-2.756-.547-3.769-1.643-1.005-1.095-1.507-2.46-1.507-4.095 0-1.635.502-3 1.507-4.095 1.013-1.095 2.269-1.642 3.769-1.642 1.365 0 2.452.499 3.262 1.496v-1.204h2.869zm-5.591 2.44c-.84 0-1.519.29-2.036.867-.518.57-.777 1.282-.777 2.137s.259 1.572.777 2.15c.517.57 1.196.854 2.036.854.832 0 1.507-.281 2.025-.843.525-.57.787-1.29.787-2.16 0-.87-.262-1.587-.787-2.15-.518-.57-1.193-.854-2.025-.854zm14.743-2.733c1.245 0 2.262.394 3.049 1.181.795.788 1.193 1.811 1.193 3.072v6.94h-2.937v-5.995c0-.78-.187-1.38-.562-1.8-.368-.428-.889-.642-1.564-.642-.667 0-1.219.214-1.654.642-.435.427-.652 1.035-.652 1.822v5.974h-2.936V20.278h2.857v1.282c.705-1.05 1.774-1.575 3.206-1.575z" fill="#030711"/>
</svg>
