<svg width="26" height="26" viewBox="0 0 26 26" fill="none" xmlns="http://www.w3.org/2000/svg">
    <g clip-path="url(#cig024nlwa)">
        <path d="m15.55 16.578 1.28-6.033c.052-.256.022-.438-.091-.549-.114-.11-.263-.13-.449-.06L8.77 12.833c-.168.064-.283.137-.344.218-.06.081-.068.158-.022.23.047.073.14.13.279.17l1.924.601 4.466-2.812c.122-.081.214-.098.278-.052.04.029.03.072-.035.13l-3.612 3.265-.14 1.985c.134 0 .264-.064.392-.192l.94-.905 1.95 1.436c.372.21.607.1.705-.33zM20.8 13a7.624 7.624 0 0 1-.618 3.03 7.835 7.835 0 0 1-1.663 2.489 7.835 7.835 0 0 1-2.49 1.663A7.624 7.624 0 0 1 13 20.8a7.624 7.624 0 0 1-3.029-.618 7.835 7.835 0 0 1-2.49-1.663 7.835 7.835 0 0 1-1.662-2.49A7.625 7.625 0 0 1 5.2 13c0-1.056.206-2.065.618-3.029A7.836 7.836 0 0 1 7.48 7.48a7.836 7.836 0 0 1 2.49-1.662A7.625 7.625 0 0 1 13 5.2c1.056 0 2.066.206 3.03.618a7.835 7.835 0 0 1 2.489 1.663 7.835 7.835 0 0 1 1.663 2.49c.412.963.618 1.973.618 3.029z" fill="#A0A8BA"/>
    </g>
    <defs>
        <clipPath id="cig024nlwa">
            <path fill="#fff" transform="translate(5.2 5.2)" d="M0 0h15.6v15.6H0z"/>
        </clipPath>
    </defs>
</svg>
