<svg width="26" height="26" viewBox="0 0 26 26" fill="none" xmlns="http://www.w3.org/2000/svg">
    <g clip-path="url(#oo9b53787a)">
        <path d="M20.8 8.02c-.105.221-.299.5-.583.836a4.291 4.291 0 0 1-1.052.887c.012.092.02.18.026.26.045 1.25-.254 2.546-.67 3.627-.805 2.008-2.038 3.624-3.8 4.721-1.837 1.054-3.976 1.278-5.947 1.087-1.309-.15-2.599-.578-3.574-1.382 1.784.213 3.449-.394 4.765-1.374-1.462.037-2.525-1.021-3.026-2.244.226.06.462.052.678.035.266-.025.517-.05.765-.104-.932-.301-1.748-.854-2.174-1.687a3.636 3.636 0 0 1-.365-1.6c.437.23.963.454 1.444.434-.727-.615-1.31-1.402-1.418-2.304-.068-.752.12-1.439.392-2.078C7.348 8.328 8.567 9.31 9.974 9.916c.962.394 1.92.605 2.913.61-.115-.887-.026-1.744.391-2.47.49-.782 1.206-1.235 2.009-1.461a2.965 2.965 0 0 1 2.974.921c.76-.082 1.49-.42 2.07-.765-.247.747-.727 1.489-1.427 1.844A9.019 9.019 0 0 0 20.8 8.02z" fill="#A0A8BA"/>
    </g>
    <defs>
        <clipPath id="oo9b53787a">
            <path fill="#fff" transform="translate(5.2 5.2)" d="M0 0h15.6v15.6H0z"/>
        </clipPath>
    </defs>
</svg>
