<svg width="26" height="26" viewBox="0 0 26 26" fill="none" xmlns="http://www.w3.org/2000/svg">
    <path d="M13.342 4.567v4.727c.015.961.8 1.737 1.767 1.737h4.87v7.626a2.37 2.37 0 0 1-2.37 2.37H8.341a2.37 2.37 0 0 1-2.37-2.37V6.937a2.37 2.37 0 0 1 2.37-2.37h5zm2.678 12.044-7.154.021h-.013a.56.56 0 0 0 .007 1.12h.01l7.154-.021h.013a.56.56 0 0 0-.017-1.12zm-3.298-3.965H8.846a.56.56 0 0 0 .004 1.12h3.885a.56.56 0 0 0-.013-1.12zm1.342-7.912.011.01 5.602 5.365a.562.562 0 0 1 .063.072.866.866 0 0 1 .121.16h-4.77a1.077 1.077 0 0 1-1.06-1.077V4.706a.54.54 0 0 1 .033.028z" fill="#A0A8BA"/>
</svg>
